<svg xmlns="http://www.w3.org/2000/svg" width="832" height="86" fill="none"><g clip-path="url(#a)"><path fill="#8B949E" fill-rule="evenodd" d="M85.296 42.623C85.296 19.083 66.2 0 42.648 0 19.094 0 0 19.083 0 42.623s19.094 42.623 42.648 42.623c23.553 0 42.648-19.082 42.648-42.623Zm-50.41-23.68c-.336.658-.336 1.52-.336 3.24v9.76c0 .43 0 .645.055.844.048.176.127.342.233.49.12.168.287.303.621.575l2.47 2.005c.403.327.604.49.677.687a.768.768 0 0 1 0 .535c-.073.197-.274.36-.677.687l-2.47 2.005c-.334.272-.5.407-.62.575a1.537 1.537 0 0 0-.234.49c-.055.2-.055.414-.055.844v21.382c0 1.721 0 2.582.335 3.24a3.076 3.076 0 0 0 1.345 1.344c.658.335 1.52.335 3.242.335h6.352c1.722 0 2.584 0 3.242-.335a3.076 3.076 0 0 0 1.344-1.344c.336-.658.336-1.519.336-3.24v-9.76c0-.43 0-.644-.055-.843a1.538 1.538 0 0 0-.233-.491c-.12-.168-.288-.303-.622-.574l-2.47-2.005c-.402-.327-.604-.49-.677-.688a.768.768 0 0 1 0-.535c.073-.196.275-.36.677-.687l2.47-2.005c.334-.271.501-.407.622-.574.106-.149.185-.315.233-.49.054-.2.054-.415.054-.845V22.184c0-1.722 0-2.583-.335-3.24a3.076 3.076 0 0 0-1.344-1.344c-.658-.335-1.52-.335-3.242-.335h-6.352c-1.723 0-2.584 0-3.242.335a3.076 3.076 0 0 0-1.345 1.343Z" clip-rule="evenodd" style="fill:#8b949e;fill:color(display-p3 .5451 .5804 .6196);fill-opacity:1"/><path fill="#8B949E" d="M119.532 68.12a.764.764 0 0 0 .765-.764V17.29a.764.764 0 0 0-.765-.765h-7.383a.816.816 0 0 0-.674.377c-1.692 2.572-4.84 3.868-9.154 4.003a.785.785 0 0 0-.766.776v7.488c0 .423.343.765.765.765h5.967c.423 0 .765.342.765.765v36.658c0 .422.343.765.765.765h9.715ZM149.007 26.875c3.982 0 7.184 2.117 7.184 7.45 0 5.175-3.202 7.449-7.184 7.449h-8.669v-14.9h8.669Zm0 24.544c11.713 0 18.507-7.136 18.507-17.408 0-9.724-6.794-16.86-18.507-16.86h-19.071a.765.765 0 0 0-.765.765v49.44c0 .422.343.765.765.765h9.637a.764.764 0 0 0 .765-.765V52.183c0-.422.343-.764.765-.764h7.904ZM184.835 60.907c-3.28 0-5.31-1.49-5.31-4.156 0-2.353 1.405-3.921 4.763-3.921h9.137v.784c0 4.548-3.905 7.293-8.59 7.293Zm9.449 6.45c0 .421.342.764.765.764h8.387a.765.765 0 0 0 .766-.765V45.224c0-10.664-6.014-16.86-16.868-16.86-8.06 0-14.23 4.305-16.76 11.224a.74.74 0 0 0 .53.969l8.451 2.071a.796.796 0 0 0 .919-.482c1.283-3.139 3.419-4.999 6.86-4.999 3.592 0 6.091 2.353 6.091 6.587v.549c0 1.176-.391 1.647-1.796 1.647h-9.762c-8.121 0-13.041 4.312-13.041 11.134 0 7.293 5.623 11.998 13.432 11.998 3.929 0 7.704-1.291 10.365-4.167.523-.566 1.661-.22 1.661.55v1.911ZM224.979 61.22c-3.795 0-6.567-1.575-7.933-4.469-.166-.351-.551-.556-.928-.46l-7.899 2a.733.733 0 0 0-.535.915c1.999 6.641 8.688 9.856 16.904 9.856 10.543 0 16.556-5.41 16.556-12.782 0-14.271-22.569-9.41-22.569-16.467 0-2.352 1.953-3.842 5.467-3.842 3.497 0 5.839 1.911 6.961 4.842a.81.81 0 0 0 .895.52l8.062-1.526a.738.738 0 0 0 .582-.93c-1.849-6.244-7.046-10.512-16.422-10.512-10.308 0-15.775 5.489-15.775 12.39 0 14.741 22.647 10.35 22.647 16.466 0 2.431-2.031 4-6.013 4ZM260.062 61.22c-3.795 0-6.567-1.575-7.933-4.469-.166-.351-.551-.556-.928-.46l-7.899 2a.733.733 0 0 0-.535.915c2 6.641 8.688 9.856 16.905 9.856 10.542 0 16.555-5.41 16.555-12.782 0-14.271-22.568-9.41-22.568-16.467 0-2.352 1.952-3.842 5.466-3.842 3.497 0 5.839 1.911 6.962 4.842a.808.808 0 0 0 .895.52l8.061-1.526a.74.74 0 0 0 .583-.93c-1.849-6.244-7.047-10.512-16.423-10.512-10.308 0-15.774 5.489-15.774 12.39 0 14.741 22.646 10.35 22.646 16.466 0 2.431-2.03 4-6.013 4ZM286.099 67.537a.765.765 0 0 0 .743.584h12.147a.766.766 0 0 0 .745-.59l6.186-26.306 6.187 26.306c.081.346.39.59.745.59h12.538c.352 0 .659-.24.743-.583l9.152-37.285a.765.765 0 0 0-.743-.947h-8.632a.764.764 0 0 0-.749.61l-6.121 29.58-7.584-29.615a.766.766 0 0 0-.741-.575h-9.657a.765.765 0 0 0-.744.587l-7.045 29.602-6.044-29.578a.765.765 0 0 0-.749-.611h-8.71a.765.765 0 0 0-.744.945l9.077 37.286ZM355.917 69.062c11.713 0 19.757-9.096 19.757-20.31 0-11.291-8.044-20.387-19.757-20.387-11.636 0-19.757 9.096-19.757 20.387 0 11.214 8.121 20.31 19.757 20.31Zm0-9.331c-4.842 0-8.59-4.078-8.59-10.979 0-6.9 3.748-11.056 8.59-11.056 4.841 0 8.668 4.156 8.668 11.056 0 6.9-3.827 10.978-8.668 10.978ZM391.077 47.576c0-6.665 3.358-8.233 8.512-8.233.988 0 2.074.098 3.102.294a.802.802 0 0 0 .946-.632l1.635-9.235a.706.706 0 0 0-.401-.782c-.94-.4-2.102-.623-3.486-.623-5.232 0-9.293 3.058-11.245 9.253V30.07a.765.765 0 0 0-.765-.764h-8.466a.765.765 0 0 0-.765.764v37.286c0 .422.343.765.765.765h9.403a.765.765 0 0 0 .765-.765v-19.78ZM425.477 59.966c-5.623 0-8.59-4.627-8.59-11.214 0-6.586 2.967-11.291 8.59-11.291 5.623 0 8.59 4.705 8.59 11.291 0 6.587-2.967 11.214-8.59 11.214Zm9.215 7.39c0 .422.342.765.765.765h8.778a.765.765 0 0 0 .765-.765V18.03a.765.765 0 0 0-.765-.765h-9.091a.765.765 0 0 0-.765.765v16.686c-2.42-4.548-6.481-6.351-11.635-6.351-10.074 0-16.946 8.782-16.946 20.387 0 11.606 6.872 20.31 16.946 20.31 5.466 0 9.683-2.196 11.948-7.842v6.136ZM505.41 17.425h6.396v50.7h-6.396v-50.7Zm1.248 45.24h16.146c3.224 0 6.162-.754 8.814-2.262 2.652-1.56 4.784-3.822 6.396-6.786 1.612-2.964 2.418-6.578 2.418-10.842 0-4.316-.806-7.93-2.418-10.842-1.612-2.964-3.744-5.2-6.396-6.708-2.652-1.56-5.59-2.34-8.814-2.34h-16.146v-5.46h16.146c4.784 0 8.996 1.118 12.636 3.354 3.64 2.184 6.474 5.2 8.502 9.048 2.08 3.796 3.12 8.086 3.12 12.87 0 4.836-1.04 9.178-3.12 13.026-2.028 3.848-4.862 6.89-8.502 9.126-3.64 2.184-7.852 3.276-12.636 3.276h-16.146v-5.46Zm63.703 6.396c-4.004 0-7.41-.884-10.218-2.652-2.756-1.768-4.862-4.134-6.318-7.098-1.404-3.016-2.106-6.37-2.106-10.062 0-3.744.754-7.098 2.262-10.062 1.56-3.016 3.692-5.408 6.396-7.176 2.756-1.768 5.954-2.652 9.594-2.652 3.692 0 6.89.936 9.594 2.808 2.704 1.82 4.706 4.316 6.006 7.488 1.352 3.172 1.794 6.734 1.326 10.686h-30.576v-4.368h27.69l-2.964 3.666v-2.262c0-2.86-.494-5.226-1.482-7.098-.988-1.924-2.34-3.38-4.056-4.368-1.664-.988-3.51-1.482-5.538-1.482-2.236 0-4.264.572-6.084 1.716-1.768 1.092-3.172 2.652-4.212 4.68-.988 2.028-1.482 4.42-1.482 7.176v1.794c0 4.368 1.066 7.8 3.198 10.296 2.132 2.496 5.122 3.744 8.97 3.744 2.496 0 4.628-.494 6.396-1.482 1.768-.988 3.38-2.522 4.836-4.602l4.836 2.34c-1.664 2.86-3.822 5.07-6.474 6.63-2.652 1.56-5.85 2.34-9.594 2.34Zm40.233-.936h-5.538l13.806-37.83h6.24l-14.508 37.83Zm-1.248 0h-5.85l-14.508-37.83h6.552l13.806 37.83Zm36.584.936c-4.004 0-7.41-.884-10.218-2.652-2.756-1.768-4.862-4.134-6.318-7.098-1.404-3.016-2.106-6.37-2.106-10.062 0-3.744.754-7.098 2.262-10.062 1.56-3.016 3.692-5.408 6.396-7.176 2.756-1.768 5.954-2.652 9.594-2.652 3.692 0 6.89.936 9.594 2.808 2.704 1.82 4.706 4.316 6.006 7.488 1.352 3.172 1.794 6.734 1.326 10.686H631.89v-4.368h27.69l-2.964 3.666v-2.262c0-2.86-.494-5.226-1.482-7.098-.988-1.924-2.34-3.38-4.056-4.368-1.664-.988-3.51-1.482-5.538-1.482-2.236 0-4.264.572-6.084 1.716-1.768 1.092-3.172 2.652-4.212 4.68-.988 2.028-1.482 4.42-1.482 7.176v1.794c0 4.368 1.066 7.8 3.198 10.296 2.132 2.496 5.122 3.744 8.97 3.744 2.496 0 4.628-.494 6.396-1.482 1.768-.988 3.38-2.522 4.836-4.602l4.836 2.34c-1.664 2.86-3.822 5.07-6.474 6.63-2.652 1.56-5.85 2.34-9.594 2.34Zm29.781-53.976v53.04H669.471v-53.04h6.24Zm25.364 53.976c-3.64 0-6.838-.884-9.594-2.652-2.756-1.768-4.914-4.134-6.474-7.098-1.508-3.016-2.262-6.37-2.262-10.062 0-3.744.754-7.098 2.262-10.062 1.56-3.016 3.718-5.408 6.474-7.176 2.756-1.768 5.954-2.652 9.594-2.652 3.692 0 6.89.884 9.594 2.652 2.756 1.768 4.888 4.16 6.396 7.176 1.56 2.964 2.34 6.318 2.34 10.062 0 3.692-.78 7.046-2.34 10.062-1.508 2.964-3.64 5.33-6.396 7.098-2.704 1.768-5.902 2.652-9.594 2.652Zm0-5.382c3.432 0 6.266-1.274 8.502-3.822 2.236-2.6 3.354-6.136 3.354-10.608 0-4.576-1.118-8.138-3.354-10.686-2.236-2.548-5.07-3.822-8.502-3.822-3.38 0-6.214 1.274-8.502 3.822-2.236 2.548-3.354 6.11-3.354 10.686 0 4.472 1.118 8.008 3.354 10.608 2.288 2.548 5.122 3.822 8.502 3.822Zm25.378 20.046v-53.43h6.084v10.374l.156.39v17.004l-.078.312v25.35h-6.162Zm19.266-14.664c-3.12 0-5.876-.754-8.268-2.262-2.34-1.56-4.16-3.822-5.46-6.786-1.3-2.964-1.95-6.552-1.95-10.764h.312c0-4.316.65-7.93 1.95-10.842 1.3-2.964 3.094-5.2 5.382-6.708 2.34-1.56 5.018-2.34 8.034-2.34 3.484 0 6.5.884 9.048 2.652 2.6 1.716 4.602 4.082 6.006 7.098 1.456 2.964 2.184 6.344 2.184 10.14 0 3.744-.728 7.124-2.184 10.14-1.404 2.964-3.406 5.33-6.006 7.098-2.548 1.716-5.564 2.574-9.048 2.574Zm-1.014-5.304c3.536 0 6.396-1.3 8.58-3.9 2.184-2.6 3.276-6.136 3.276-10.608 0-4.524-1.092-8.086-3.276-10.686-2.184-2.6-5.044-3.9-8.58-3.9-3.588 0-6.5 1.3-8.736 3.9-2.184 2.6-3.276 6.162-3.276 10.686 0 4.472 1.092 8.008 3.276 10.608 2.236 2.6 5.148 3.9 8.736 3.9Zm41.546 5.304c-4.004 0-7.41-.884-10.218-2.652-2.756-1.768-4.862-4.134-6.318-7.098-1.404-3.016-2.106-6.37-2.106-10.062 0-3.744.754-7.098 2.262-10.062 1.56-3.016 3.692-5.408 6.396-7.176 2.756-1.768 5.954-2.652 9.594-2.652 3.692 0 6.89.936 9.594 2.808 2.704 1.82 4.706 4.316 6.006 7.488 1.352 3.172 1.794 6.734 1.326 10.686h-30.576v-4.368h27.69l-2.964 3.666v-2.262c0-2.86-.494-5.226-1.482-7.098-.988-1.924-2.34-3.38-4.056-4.368-1.664-.988-3.51-1.482-5.538-1.482-2.236 0-4.264.572-6.084 1.716-1.768 1.092-3.172 2.652-4.212 4.68-.988 2.028-1.482 4.42-1.482 7.176v1.794c0 4.368 1.066 7.8 3.198 10.296 2.132 2.496 5.122 3.744 8.97 3.744 2.496 0 4.628-.494 6.396-1.482 1.768-.988 3.38-2.522 4.836-4.602l4.836 2.34c-1.664 2.86-3.822 5.07-6.474 6.63-2.652 1.56-5.85 2.34-9.594 2.34Zm45.069-38.766-1.17 5.772a9.308 9.308 0 0 0-2.028-.39 22.532 22.532 0 0 0-1.872-.078c-1.82 0-3.51.312-5.07.936-1.56.624-2.808 1.768-3.744 3.432-.936 1.612-1.404 3.874-1.404 6.786h-1.872c0-3.952.546-7.202 1.638-9.75 1.092-2.548 2.6-4.446 4.524-5.694 1.976-1.3 4.16-1.95 6.552-1.95.936 0 1.768.078 2.496.234.78.156 1.43.39 1.95.702Zm-15.756 0v9.984h.468v27.846H809.792v-37.83h5.772Z" style="fill:#8b949e;fill:color(display-p3 .5451 .5804 .6196);fill-opacity:1"/><path stroke="#8B949E" stroke-width="2" d="M475 1v85" style="stroke:#8b949e;stroke:color(display-p3 .5451 .5804 .6196);stroke-opacity:1"/></g><defs><clipPath id="a"><path fill="#fff" d="M0 0h832v86H0z" style="fill:#fff;fill-opacity:1"/></clipPath></defs></svg>